<!DOCTYPE svg PUBLIC "-//W3C//DTD SVG 20010904//EN" "http://www.w3.org/TR/2001/REC-SVG-20010904/DTD/svg10.dtd">
<svg version="1.0" xmlns="http://www.w3.org/2000/svg" width="470px" height="638px" viewBox="0 0 4700 6380" preserveAspectRatio="xMidYMid meet">
<g id="layer101" fill="#ff2702" stroke="none">
 <path d="M0 3190 l0 -3190 2350 0 2350 0 0 3190 0 3190 -2350 0 -2350 0 0 -3190z"/>
 </g>
<g id="layer102" fill="#ffffff" stroke="none">
 <path d="M0 3190 l0 -3190 1143 2 c628 0 1086 4 1017 8 -525 30 -1077 286 -1470 680 -310 311 -532 711 -629 1130 -40 173 -51 289 -51 530 0 449 60 685 296 1160 248 499 559 1006 959 1566 392 548 977 1277 1033 1290 15 3 32 7 37 9 6 2 -518 4 -1162 4 l-1173 1 0 -3190z"/>
 <path d="M2365 6375 c6 -2 22 -6 37 -9 20 -5 72 -60 196 -209 510 -612 981 -1256 1338 -1830 289 -463 556 -979 641 -1238 97 -290 117 -438 110 -797 -4 -236 -8 -281 -30 -390 -81 -389 -242 -732 -484 -1032 -397 -493 -1027 -825 -1633 -859 -78 -5 348 -9 1013 -9 l1147 -2 0 3190 0 3190 -1172 -1 c-645 0 -1168 -2 -1163 -4z"/>
 <path d="M2195 3559 c-259 -33 -517 -161 -705 -349 -375 -375 -465 -943 -225 -1414 165 -323 451 -546 817 -637 80 -20 117 -23 273 -23 160 1 190 3 275 26 484 130 808 466 916 948 24 104 24 376 1 478 -57 247 -172 460 -342 627 -265 262 -642 390 -1010 344z"/>
 </g>

</svg>