<!DOCTYPE svg PUBLIC "-//W3C//DTD SVG 20010904//EN" "http://www.w3.org/TR/2001/REC-SVG-20010904/DTD/svg10.dtd">
<svg version="1.0" xmlns="http://www.w3.org/2000/svg" width="753px" height="1021px" viewBox="0 0 7530 10210" preserveAspectRatio="xMidYMid meet">
<g id="layer101" fill="#ff2602" stroke="none">
 <path d="M3672 10195 c-43 -19 -54 -31 -291 -315 -1046 -1252 -1974 -2571 -2605 -3705 -139 -248 -410 -788 -485 -965 -369 -870 -385 -1897 -44 -2790 140 -367 324 -687 584 -1019 104 -132 430 -460 565 -567 602 -480 1300 -762 2041 -825 186 -15 655 -6 813 16 376 52 717 149 1057 300 692 307 1294 845 1692 1510 280 467 448 975 512 1545 20 173 17 621 -5 800 -46 380 -131 709 -268 1032 -74 173 -345 713 -484 963 -626 1127 -1559 2454 -2605 3705 -239 286 -248 297 -293 315 -45 19 -141 19 -184 0z m233 -4495 c864 -71 1573 -684 1759 -1521 65 -297 61 -613 -14 -902 -91 -351 -284 -678 -547 -928 -523 -495 -1271 -663 -1947 -438 -799 267 -1336 1010 -1336 1849 0 517 202 1002 570 1370 360 362 820 558 1351 579 20 0 94 -4 164 -9z"/>
 </g>

</svg>