<svg xmlns="http://www.w3.org/2000/svg"><symbol id="icon-fb" viewBox="0 0 240 510"><path d="M40 370c0-113-1-120-20-120-17 0-20-7-20-50s3-50 20-50c16 0 20-7 20-30 0-42 24-96 48-109 12-6 48-11 81-11h61v45c0 44 0 45-34 45-33 0-46 13-46 46 0 10 12 14 40 14 39 0 40 1 40 34 0 54-8 66-46 66h-34v240H40V370z"/></symbol><symbol id="icon-insta" viewBox="0 0 16 16"><path d="M11.8 1C13.6 1 15 2.4 15 4.2v7.7c0 1.7-1.4 3.1-3.1 3.1H4.2C2.4 15 1 13.6 1 11.8V4.2C1 2.4 2.4 1 4.2 1h7.6m0-1H4.2C1.9 0 0 1.9 0 4.2v7.7C0 14.1 1.9 16 4.2 16h7.7c2.3 0 4.2-1.9 4.2-4.2V4.2C16 1.9 14.1 0 11.8 0z"/><path d="M8 4.9c1.7 0 3.1 1.4 3.1 3.1 0 1.7-1.4 3.1-3.1 3.1-1.7 0-3.1-1.4-3.1-3.1 0-1.7 1.4-3.1 3.1-3.1m0-1C5.7 3.9 3.9 5.7 3.9 8s1.8 4.1 4.1 4.1 4.1-1.8 4.1-4.1S10.3 3.9 8 3.9z"/><circle cx="12.3" cy="3.7" r=".9"/></symbol><symbol id="icon-vk" viewBox="0 0 630 360"><path d="M193 333C120 283 19 138 4 62l-6-32h65c62 0 65 1 77 30 19 46 68 120 80 120 18 0 12-111-7-132-25-28-2-39 77-36l65 3 5 77c3 43 9 80 12 84 8 7 59-69 78-116 12-29 14-30 86-30 71 0 74 1 74 23 0 13-20 50-45 83-24 32-45 65-45 71 0 7 22 38 50 68 66 72 60 85-35 85-53 0-76-4-85-15-7-9-26-25-43-37-32-23-47-14-47 30 0 20-4 22-63 22-53 0-71-5-104-27z"/></symbol></svg>