<!DOCTYPE svg PUBLIC "-//W3C//DTD SVG 20010904//EN" "http://www.w3.org/TR/2001/REC-SVG-20010904/DTD/svg10.dtd">
<svg version="1.0" xmlns="http://www.w3.org/2000/svg" fill="#ffffff" width="1600px" height="609px" viewBox="0 0 16000 6090" preserveAspectRatio="xMidYMid meet">
<g id="layer101" stroke="none">
 <path d="M5772 6068 c2 -15 11 -24 26 -26 22 -3 22 -5 22 -177 l0 -173 -25 -6 c-16 -4 -25 -13 -25 -26 0 -19 7 -20 165 -20 l165 0 0 60 c0 71 -17 79 -49 25 -19 -33 -23 -35 -76 -35 l-55 0 0 70 0 70 46 0 c37 0 47 -4 51 -19 5 -21 29 -35 44 -25 14 8 11 141 -3 146 -21 8 -38 -2 -38 -23 0 -16 -7 -19 -50 -19 l-50 0 0 59 c0 87 3 91 66 91 41 0 59 -5 74 -20 11 -11 20 -24 20 -30 0 -12 49 -45 56 -38 2 3 -1 35 -8 72 l-13 66 -173 0 -173 0 3 -22z"/>
 <path d="M6457 6072 c-9 -10 -17 -40 -19 -72 -4 -74 18 -78 59 -11 23 36 39 51 61 56 45 9 72 -9 72 -48 0 -41 -4 -46 -65 -84 -84 -53 -92 -60 -110 -99 -34 -71 3 -155 78 -175 37 -10 152 -8 162 3 3 2 7 30 11 61 6 54 5 57 -15 57 -11 0 -21 -4 -21 -9 0 -5 -12 -23 -26 -40 -33 -40 -76 -42 -101 -5 -22 34 -13 48 70 104 104 71 112 81 112 150 0 54 -3 62 -34 94 l-35 36 -91 0 c-75 0 -95 -3 -108 -18z"/>
 <path d="M7122 6068 c2 -15 11 -24 25 -26 29 -4 35 -47 31 -217 l-3 -130 -37 -3 c-34 -3 -39 0 -58 37 -33 66 -50 54 -50 -34 0 -68 2 -75 19 -75 11 0 23 5 27 11 5 8 56 10 175 7 l168 -5 7 64 c3 35 4 66 1 69 -12 13 -43 -8 -57 -39 -12 -27 -21 -33 -52 -35 l-38 -3 0 173 0 174 32 9 c18 6 34 18 36 28 3 15 -8 17 -113 17 -115 0 -116 0 -113 -22z"/>
 <path d="M7686 6074 c-19 -50 1 -84 49 -84 37 0 55 15 55 46 0 44 -10 54 -55 54 -30 0 -45 -5 -49 -16z"/>
 <path d="M8110 6073 c0 -10 30 -49 66 -88 80 -86 119 -160 110 -209 -10 -54 -64 -63 -116 -20 -56 48 -67 -18 -11 -68 59 -53 132 -58 184 -13 75 66 62 154 -37 258 l-65 67 54 0 c42 0 59 -5 74 -21 37 -40 52 -3 29 72 l-11 39 -139 0 c-125 0 -138 -2 -138 -17z"/>
 <path d="M8775 6063 c-85 -89 -78 -306 11 -389 36 -34 88 -39 141 -13 38 18 50 31 71 78 21 46 26 70 25 136 0 87 -15 132 -59 184 -24 29 -30 31 -94 31 -62 0 -72 -3 -95 -27z m122 -44 c35 -71 32 -238 -5 -299 l-20 -32 -20 20 c-53 53 -34 357 21 339 7 -2 17 -15 24 -28z"/>
 <path d="M9375 6080 c-9 -15 14 -40 36 -40 18 0 19 -10 19 -154 l0 -154 -30 -7 c-16 -4 -30 -12 -30 -20 0 -15 63 -42 120 -51 l40 -7 0 197 c0 185 1 196 19 196 22 0 45 25 36 40 -4 6 -47 10 -105 10 -58 0 -101 -4 -105 -10z"/>
 <path d="M9981 6053 c12 -21 26 -45 33 -53 7 -8 17 -26 24 -40 6 -14 25 -47 42 -75 28 -45 70 -130 70 -141 0 -2 -30 -4 -67 -4 -58 0 -70 3 -94 26 -39 37 -53 24 -46 -42 3 -29 8 -58 12 -64 6 -10 277 -15 287 -5 7 7 -17 78 -42 125 -26 50 -109 227 -127 272 -15 37 -17 38 -64 38 l-49 0 21 -37z"/>
 <path d="M5105 5049 c-60 -4 -299 -12 -530 -18 -231 -6 -501 -15 -600 -21 -318 -17 -676 -30 -823 -30 -78 0 -218 -4 -310 -10 -155 -8 -608 -26 -1321 -50 -162 -5 -296 -12 -299 -14 -2 -3 -1 -9 3 -15 9 -15 13541 -15 13550 0 4 6 5 13 2 15 -2 3 -132 9 -288 14 -563 19 -908 31 -1114 40 -115 6 -367 14 -560 20 -192 5 -451 14 -575 19 -220 10 -442 18 -1095 43 -370 14 -5856 21 -6040 7z"/>
 <path d="M1724 4385 c-356 -49 -644 -251 -784 -550 -70 -149 -111 -318 -131 -531 -16 -179 -6 -315 40 -572 18 -99 81 -259 142 -359 38 -63 145 -186 194 -223 25 -19 59 -45 74 -57 54 -43 208 -112 316 -143 221 -62 588 -62 809 0 113 32 268 103 319 146 16 13 32 24 36 24 9 0 171 161 171 170 0 4 11 20 24 35 68 78 158 313 192 500 27 141 27 507 1 650 -22 121 -71 288 -98 333 -10 18 -19 37 -19 42 0 16 -62 112 -117 182 -55 69 -143 149 -217 196 -121 76 -306 140 -467 161 -109 14 -367 12 -485 -4z m484 -189 c141 -39 202 -71 305 -166 155 -143 232 -316 283 -640 28 -179 18 -385 -31 -650 -12 -62 -63 -203 -96 -265 -60 -112 -144 -205 -254 -281 -191 -132 -568 -151 -796 -41 -98 48 -103 52 -182 127 -133 126 -203 266 -254 505 -20 98 -26 157 -30 325 -5 208 -1 249 47 485 17 86 84 239 137 315 121 174 296 278 523 311 89 13 252 1 348 -25z"/>
 <path d="M4439 4396 c-2 -2 -49 -9 -104 -15 -135 -15 -330 -80 -430 -143 -261 -166 -393 -375 -467 -738 -20 -101 -23 -143 -23 -345 1 -185 4 -247 19 -315 10 -47 21 -103 25 -125 17 -94 77 -236 149 -354 58 -95 202 -230 317 -298 71 -42 178 -84 300 -119 96 -27 111 -28 365 -32 240 -4 685 10 817 24 l51 6 7 92 c3 50 13 143 21 206 8 63 18 136 21 163 l6 47 -69 0 c-60 0 -71 -3 -96 -27 -15 -15 -28 -32 -28 -38 0 -18 -163 -175 -182 -175 -5 0 -24 -11 -42 -25 -18 -14 -38 -25 -44 -25 -6 0 -32 -9 -59 -21 -70 -30 -243 -59 -357 -59 -113 0 -301 32 -358 61 -21 11 -42 19 -47 19 -12 0 -108 58 -132 80 -105 94 -158 162 -206 266 -58 127 -73 177 -98 322 -47 269 -26 659 45 832 68 170 109 237 193 320 72 71 75 74 144 111 143 77 300 105 532 95 135 -6 178 -13 312 -49 69 -19 185 -76 222 -110 l27 -26 0 -390 0 -390 -24 -28 c-23 -27 -29 -28 -138 -33 l-113 -5 0 -90 0 -90 370 0 370 0 3 73 3 72 -35 0 c-47 0 -83 18 -90 44 -3 11 -6 214 -6 449 0 467 -1 478 -57 513 -15 10 -40 28 -54 39 -15 12 -67 42 -115 67 -235 120 -456 168 -775 168 -91 0 -168 -2 -170 -4z"/>
 <path d="M6965 4385 c-104 -14 -241 -55 -329 -97 -55 -26 -84 -43 -172 -102 -59 -40 -190 -186 -235 -262 -120 -203 -179 -456 -179 -774 0 -153 22 -360 45 -435 9 -27 20 -69 25 -93 19 -80 128 -287 185 -352 205 -230 439 -339 767 -360 393 -25 674 39 897 203 278 205 420 551 421 1027 0 437 -100 740 -315 953 -93 93 -91 91 -166 139 -104 66 -274 129 -404 149 -106 17 -435 19 -540 4z m488 -196 c234 -35 455 -262 533 -547 17 -65 17 -110 0 -182 -14 -60 -57 -151 -84 -178 -47 -49 -122 -142 -146 -183 -42 -73 -75 -180 -82 -268 -4 -51 -11 -80 -18 -78 -22 7 -79 102 -102 170 -41 119 -33 216 32 410 19 55 15 112 -11 151 -10 15 -47 41 -82 58 -53 25 -71 30 -109 24 -50 -6 -129 -49 -144 -76 -18 -33 -11 -124 16 -211 31 -101 29 -180 -6 -228 l-21 -31 -22 24 c-12 13 -43 36 -68 50 -46 26 -69 22 -69 -11 0 -7 -4 -13 -8 -13 -13 0 -42 -67 -42 -96 0 -32 29 -89 72 -141 18 -22 42 -53 53 -69 11 -15 44 -59 74 -98 30 -38 65 -92 79 -119 22 -44 24 -58 19 -126 -8 -116 -39 -201 -95 -262 l-47 -51 -1 94 c0 87 -3 98 -33 151 -17 31 -68 91 -113 134 -250 242 -290 290 -317 394 -15 56 -11 159 13 301 17 100 17 110 2 132 -9 15 -33 30 -57 36 -35 10 -46 8 -83 -10 -52 -25 -59 -39 -82 -158 l-18 -93 -29 63 c-41 89 -53 188 -39 312 11 98 59 268 88 313 8 12 14 27 14 33 0 6 11 26 25 44 14 18 25 36 25 41 0 13 60 77 119 125 102 84 233 144 361 165 96 16 310 18 403 4z"/>
 <path d="M8677 4363 c-4 -3 -7 -36 -7 -73 l0 -67 50 -6 c83 -10 104 -28 126 -111 18 -67 19 -117 19 -1001 0 -896 -1 -931 -19 -961 -20 -34 -68 -54 -125 -54 l-31 0 0 -75 0 -75 260 0 260 0 42 38 c44 40 188 196 253 276 22 27 48 56 58 65 9 8 17 20 17 25 0 5 10 19 23 31 12 12 33 37 47 55 14 19 40 52 57 74 18 23 41 52 50 65 10 13 29 37 44 55 14 17 43 56 64 86 22 30 44 60 50 67 5 6 20 27 33 45 13 18 59 84 103 146 43 62 79 116 79 121 0 5 7 14 15 21 8 7 36 48 62 91 27 44 60 98 75 122 16 23 35 56 43 72 9 17 33 59 55 95 38 63 109 201 133 259 10 23 12 -11 10 -183 -2 -116 -4 -454 -6 -751 -2 -493 -4 -546 -22 -614 -22 -84 -37 -99 -114 -108 l-51 -6 0 -74 0 -73 298 2 297 3 3 73 3 72 -44 0 c-73 0 -103 16 -129 68 l-23 47 -5 1080 -5 1080 -120 3 -120 3 -17 -33 c-9 -18 -58 -118 -109 -223 -82 -166 -130 -257 -225 -420 -13 -22 -35 -60 -49 -85 -14 -25 -38 -64 -53 -87 -48 -74 -132 -207 -145 -228 -7 -11 -15 -22 -18 -25 -3 -3 -18 -23 -32 -45 -62 -94 -174 -250 -272 -377 -38 -49 -74 -97 -80 -105 -13 -19 -26 -36 -125 -155 -44 -53 -80 -102 -80 -107 0 -6 -4 -11 -8 -11 -5 0 -46 -47 -93 -105 -46 -57 -87 -104 -91 -105 -12 0 -9 1757 2 1810 19 84 39 118 81 134 22 9 55 16 75 16 l35 0 -3 73 -3 72 -296 3 c-162 1 -298 -1 -302 -5z"/>
 <path d="M11280 4297 l0 -74 41 -6 c52 -7 74 -28 88 -84 9 -32 12 -314 11 -994 0 -851 -2 -954 -17 -990 -17 -43 -42 -59 -94 -59 l-29 0 0 -74 0 -73 693 -7 c442 -4 750 -11 852 -20 88 -7 163 -11 167 -7 7 6 38 198 58 366 7 55 15 117 17 138 l5 37 -71 0 -70 0 -27 -57 c-62 -129 -135 -198 -260 -246 -57 -21 -74 -22 -434 -25 -206 -2 -385 0 -398 3 -49 12 -52 42 -52 455 l0 381 383 -3 c376 -3 383 -3 425 -26 23 -12 55 -41 72 -63 29 -40 36 -59 60 -151 l13 -48 67 0 68 0 7 239 c4 132 4 303 0 380 l-7 141 -68 0 -68 0 -17 -70 c-9 -39 -26 -81 -36 -94 -10 -13 -19 -27 -19 -31 0 -14 -66 -61 -109 -77 -40 -14 -96 -17 -408 -17 l-363 -1 0 483 c0 439 2 485 18 517 l17 35 383 3 c323 2 393 0 444 -14 150 -38 230 -108 299 -259 l44 -95 73 0 c66 0 73 2 68 17 -4 9 -11 83 -16 163 -12 196 -30 353 -41 365 -7 6 -320 11 -889 13 l-880 2 0 -73z"/>
 <path d="M13496 4354 c-3 -8 -6 -42 -6 -73 l0 -58 51 -6 c61 -8 76 -18 89 -66 15 -56 14 -1965 -2 -2008 -12 -34 -41 -48 -108 -55 -24 -3 -25 -6 -25 -73 l0 -70 313 -3 312 -2 0 74 0 73 -51 5 c-89 9 -84 -18 -87 453 l-3 415 58 -6 c153 -17 318 -79 402 -151 22 -18 41 -33 44 -33 21 0 332 -307 373 -369 79 -119 94 -149 100 -195 8 -55 -1 -91 -23 -102 -10 -4 -43 -10 -73 -13 l-55 -6 -3 -67 c-3 -63 -1 -68 20 -73 13 -3 181 -4 373 -3 l350 3 3 73 3 72 -41 0 c-91 0 -128 18 -214 105 -45 45 -119 128 -166 186 -119 145 -122 148 -250 278 -126 128 -164 161 -263 236 -36 28 -66 54 -67 58 0 4 8 11 18 14 9 4 19 9 22 13 3 3 25 21 50 40 106 82 218 187 339 318 53 58 151 189 211 282 71 109 74 114 108 180 16 30 33 64 39 75 17 30 59 123 85 185 40 95 52 114 87 137 19 13 47 23 62 23 l29 0 0 70 0 69 -32 6 c-18 3 -152 5 -298 3 l-265 -3 -3 -71 -3 -71 51 -7 50 -7 0 -39 c0 -55 -64 -216 -131 -328 -140 -236 -334 -463 -534 -626 -38 -31 -76 -61 -82 -66 -37 -30 -86 -52 -106 -47 -97 22 -189 37 -225 37 l-43 0 3 515 c3 510 3 515 24 536 14 13 39 23 68 26 l47 6 -3 71 -3 71 -306 3 c-273 2 -307 1 -313 -14z"/>
 <path d="M145 3254 c-52 -13 -96 -40 -120 -73 -22 -33 -25 -47 -25 -128 0 -86 2 -92 31 -129 37 -47 39 -49 112 -64 108 -24 207 19 243 107 8 18 14 61 14 96 0 54 -5 70 -30 108 -17 26 -45 52 -67 63 -38 18 -122 29 -158 20z"/>
 <path d="M15750 3254 c-56 -19 -94 -42 -117 -73 -24 -31 -29 -48 -31 -112 -6 -119 38 -184 141 -208 85 -21 158 -3 215 54 l42 42 0 96 c0 89 -2 98 -27 128 -48 57 -159 93 -223 73z"/>
 <path d="M1212 1228 c3 -9 41 -14 134 -15 71 -2 293 -10 494 -18 201 -8 500 -19 665 -25 477 -16 864 -30 1080 -41 110 -5 360 -13 555 -19 195 -5 479 -15 630 -22 396 -19 6046 -19 6460 0 157 7 438 17 625 22 187 5 378 11 425 14 88 6 687 29 1205 46 165 5 469 17 675 25 206 8 429 16 494 18 85 1 121 6 124 15 3 9 -1358 12 -6783 12 -5425 0 -6786 -3 -6783 -12z"/>
 <path d="M6073 461 c-34 -16 -43 -26 -48 -54 -9 -48 -3 -92 14 -92 8 0 24 18 36 40 12 22 38 49 57 59 34 19 37 19 62 3 20 -13 26 -26 26 -51 0 -32 -6 -38 -78 -84 -91 -58 -112 -85 -112 -142 0 -62 21 -94 80 -125 40 -21 142 -17 164 6 8 8 16 36 18 64 4 65 -19 73 -53 18 -27 -45 -37 -53 -65 -53 -28 0 -54 30 -54 63 0 21 11 32 57 59 31 18 76 52 100 74 38 37 43 47 43 85 0 40 -14 74 -45 105 -17 18 -94 44 -128 44 -17 0 -51 -9 -74 -19z"/>
 <path d="M8122 463 c-26 -9 -53 -29 -69 -50 -26 -34 -27 -41 -31 -188 -4 -150 -5 -153 -28 -164 -14 -6 -24 -19 -24 -31 0 -20 5 -21 102 -18 110 3 132 15 78 43 l-32 17 4 132 c2 106 7 137 21 159 26 39 59 52 105 41 30 -7 41 -17 60 -54 20 -40 22 -57 20 -160 l-3 -115 -33 -14 c-20 -9 -32 -21 -30 -30 3 -13 20 -16 92 -16 97 0 119 13 68 39 -35 18 -42 48 -42 189 0 139 -27 192 -114 221 -57 19 -88 19 -144 -1z"/>
 <path d="M4653 460 c-32 -13 -29 -24 12 -39 l35 -12 0 -167 0 -168 -30 -17 c-16 -10 -30 -25 -30 -33 0 -11 22 -14 123 -14 139 0 179 8 213 45 47 50 41 119 -15 173 l-30 28 28 50 c16 27 48 71 72 97 34 39 39 51 28 58 -41 26 -119 -2 -158 -57 -17 -23 -31 -46 -31 -50 0 -12 -51 -74 -61 -74 -6 0 -9 26 -7 62 3 57 5 64 31 76 30 15 36 37 11 46 -24 9 -166 6 -191 -4z m216 -247 c52 -42 23 -158 -37 -151 -27 3 -27 4 -30 86 -3 81 -3 82 21 82 14 0 34 -8 46 -17z"/>
 <path d="M7305 463 c-11 -2 -30 -6 -42 -9 -33 -6 -28 -22 11 -38 20 -8 37 -24 41 -38 4 -12 18 -48 30 -78 13 -30 43 -104 66 -164 62 -157 86 -172 120 -76 11 30 30 84 43 120 14 36 32 85 40 110 34 94 48 119 78 131 53 22 26 34 -80 37 -86 2 -102 0 -102 -13 0 -8 8 -20 18 -26 17 -11 18 -14 3 -55 l-16 -44 -56 0 c-53 0 -58 2 -67 28 -5 15 -13 34 -16 43 -5 10 1 19 19 27 37 17 31 38 -12 46 -40 6 -46 6 -78 -1z m185 -205 c0 -2 -6 -23 -14 -48 -12 -41 -14 -43 -24 -23 -7 12 -16 33 -22 47 -9 25 -8 26 25 26 19 0 35 -1 35 -2z"/>
 <path d="M8776 461 c-49 -8 -54 -21 -16 -43 l30 -17 0 -160 c0 -166 0 -164 -45 -196 -41 -28 -5 -37 136 -33 120 3 137 5 165 25 62 44 63 141 3 194 l-29 26 41 64 c23 35 55 78 71 96 36 37 30 53 -18 53 -67 0 -99 -22 -145 -102 -66 -111 -79 -115 -79 -23 0 61 2 65 25 71 15 4 25 13 25 24 0 27 -70 36 -164 21z m182 -247 c18 -12 22 -25 22 -69 0 -44 -4 -57 -22 -69 -12 -9 -33 -16 -45 -16 -22 0 -23 3 -23 85 0 82 1 85 23 85 12 0 33 -7 45 -16z"/>
 <path d="M9465 461 c-36 -8 -39 -27 -6 -44 28 -14 47 -46 80 -132 12 -33 34 -89 48 -125 14 -36 31 -79 37 -96 15 -40 34 -64 53 -64 14 0 52 72 53 98 0 7 11 38 25 68 14 30 25 61 25 68 0 8 11 38 25 68 14 29 25 61 25 71 0 10 16 27 35 39 57 33 40 43 -70 43 -72 0 -99 -3 -103 -13 -2 -7 5 -16 17 -19 25 -6 26 -21 7 -68 -15 -34 -16 -35 -73 -35 l-59 0 -12 43 c-10 38 -9 43 8 56 56 39 -13 64 -115 42z m209 -223 c-3 -12 -12 -35 -19 -52 l-13 -30 -12 44 c-7 25 -14 48 -17 53 -2 4 12 7 32 7 33 0 36 -2 29 -22z"/>
 <path d="M10225 463 c-46 -7 -52 -20 -18 -39 l30 -18 6 -150 c7 -161 1 -187 -43 -201 -31 -10 -20 -37 18 -47 70 -18 92 -1 266 205 l66 79 0 -111 0 -111 -37 -16 c-37 -15 -37 -16 -18 -30 28 -21 168 -16 173 6 1 8 -8 20 -20 25 -30 13 -36 56 -37 258 l-1 157 -23 0 c-16 0 -38 -17 -68 -52 -24 -29 -51 -62 -61 -73 -33 -38 -60 -70 -107 -129 l-46 -59 -3 69 c-4 102 9 176 33 189 47 24 49 27 30 42 -18 12 -75 15 -140 6z"/>
 <path d="M11073 463 c-33 -6 -28 -32 7 -44 l30 -11 0 -174 0 -174 -26 0 c-37 0 -61 16 -72 50 -8 20 -18 30 -31 30 -19 0 -21 -6 -21 -57 0 -32 4 -62 8 -68 4 -6 83 -10 200 -10 l192 0 0 74 c0 63 -2 72 -16 67 -9 -3 -18 -6 -20 -6 -2 0 -4 -6 -4 -14 0 -7 -9 -25 -21 -40 -15 -19 -30 -26 -55 -26 l-34 0 0 171 0 170 35 15 c49 20 45 40 -11 48 -50 6 -124 6 -161 -1z"/>
 <path d="M5350 444 c0 -9 14 -21 30 -27 l30 -11 0 -168 0 -168 -25 -10 c-15 -6 -25 -17 -25 -30 0 -19 6 -20 159 -20 l159 0 6 31 c11 54 7 86 -11 93 -14 6 -32 -8 -33 -25 0 -3 -9 -15 -20 -27 -15 -16 -32 -22 -65 -22 l-45 0 0 70 0 70 46 0 c37 0 47 -4 51 -20 3 -11 14 -20 24 -20 17 0 19 8 19 69 0 39 -4 73 -10 76 -5 3 -19 -6 -32 -20 -16 -19 -31 -25 -60 -25 l-38 0 0 53 c0 91 4 97 66 97 55 0 62 -4 103 -59 27 -37 45 -19 38 41 -4 26 -9 53 -12 58 -4 6 -78 10 -181 10 -152 0 -174 -2 -174 -16z"/>
 <path d="M6700 445 c0 -9 12 -20 27 -26 15 -6 31 -16 35 -22 4 -7 8 -85 8 -174 l0 -163 -31 0 c-43 0 -66 15 -74 49 -7 31 -24 44 -44 32 -8 -6 -10 -26 -5 -72 l6 -64 193 0 194 0 5 29 c9 44 7 116 -3 116 -23 0 -41 -14 -41 -31 0 -29 -36 -59 -70 -59 l-30 0 0 174 c0 172 0 175 23 182 12 3 28 11 35 17 24 19 -9 27 -120 27 -90 0 -108 -3 -108 -15z"/>
 </g>

</svg>